HIERARCHY
ROOT mixamorig:Hips
{
	OFFSET -0.000008 104.274872 1.554316
	CHANNELS 6 Xposition Yposition Zposition Xrotation Yrotation Zrotation
	JOINT mixamorig:Spine
	{
		OFFSET -0.000005 10.181595 0.131519
		CHANNELS 6 Xposition Yposition Zposition Xrotation Yrotation Zrotation
		JOINT mixamorig:Spine1
		{
			OFFSET -0.000000 9.893959 -1.470707
			CHANNELS 6 Xposition Yposition Zposition Xrotation Yrotation Zrotation
			JOINT mixamorig:Spine2
			{
				OFFSET -0.000000 9.220757 -1.370641
				CHANNELS 6 Xposition Yposition Zposition Xrotation Yrotation Zrotation
				JOINT mixamorig:Neck
				{
					OFFSET 0.000001 16.740417 -2.049036
					CHANNELS 6 Xposition Yposition Zposition Xrotation Yrotation Zrotation
					JOINT mixamorig:Head
					{
						OFFSET 0.000000 9.617874 1.685006
						CHANNELS 6 Xposition Yposition Zposition Xrotation Yrotation Zrotation
						JOINT mixamorig:HeadTop_End
						{
							OFFSET 0.000002 22.037354 7.501101
							CHANNELS 6 Xposition Yposition Zposition Xrotation Yrotation Zrotation
							End Site
							{
								OFFSET 0.000168 2310.654297 -282.823242
							}
						}
					}
				}
				JOINT mixamorig:RightShoulder
				{
					OFFSET -4.569970 11.014908 -2.160885
					CHANNELS 6 Xposition Yposition Zposition Xrotation Yrotation Zrotation
					JOINT mixamorig:RightArm
					{
						OFFSET -10.592851 -0.524811 -2.232101
						CHANNELS 6 Xposition Yposition Zposition Xrotation Yrotation Zrotation
						JOINT mixamorig:RightForeArm
						{
							OFFSET -27.841511 0.000031 -0.000004
							CHANNELS 6 Xposition Yposition Zposition Xrotation Yrotation Zrotation
							JOINT mixamorig:RightHand
							{
								OFFSET -28.328831 -0.000015 0.000015
								CHANNELS 6 Xposition Yposition Zposition Xrotation Yrotation Zrotation
								JOINT mixamorig:RightHandThumb1
								{
									OFFSET -2.464806 -1.573990 2.681852
									CHANNELS 6 Xposition Yposition Zposition Xrotation Yrotation Zrotation
									JOINT mixamorig:RightHandThumb2
									{
										OFFSET -3.215179 -1.872803 1.924282
										CHANNELS 6 Xposition Yposition Zposition Xrotation Yrotation Zrotation
										JOINT mixamorig:RightHandThumb3
										{
											OFFSET -2.654831 -1.527969 1.512609
											CHANNELS 6 Xposition Yposition Zposition Xrotation Yrotation Zrotation
											JOINT mixamorig:RightHandThumb4
											{
												OFFSET -2.018814 -1.152008 1.108052
												CHANNELS 6 Xposition Yposition Zposition Xrotation Yrotation Zrotation
												End Site
												{
													OFFSET -188.809540 -114.533607 132.431396
												}
											}
										}
									}
								}
								JOINT mixamorig:RightHandIndex1
								{
									OFFSET -9.108284 -0.517868 2.259835
									CHANNELS 6 Xposition Yposition Zposition Xrotation Yrotation Zrotation
									JOINT mixamorig:RightHandIndex2
									{
										OFFSET -3.699989 0.000000 0.001215
										CHANNELS 6 Xposition Yposition Zposition Xrotation Yrotation Zrotation
										JOINT mixamorig:RightHandIndex3
										{
											OFFSET -2.850006 0.000031 -0.000522
											CHANNELS 6 Xposition Yposition Zposition Xrotation Yrotation Zrotation
											JOINT mixamorig:RightHandIndex4
											{
												OFFSET -2.772186 -0.000015 -0.000020
												CHANNELS 6 Xposition Yposition Zposition Xrotation Yrotation Zrotation
												End Site
												{
													OFFSET -277.218445 0.000000 -0.050231
												}
											}
										}
									}
								}
								JOINT mixamorig:RightHandMiddle1
								{
									OFFSET -9.532516 -0.000031 -0.000023
									CHANNELS 6 Xposition Yposition Zposition Xrotation Yrotation Zrotation
									JOINT mixamorig:RightHandMiddle2
									{
										OFFSET -3.700005 -0.000015 0.003713
										CHANNELS 6 Xposition Yposition Zposition Xrotation Yrotation Zrotation
										JOINT mixamorig:RightHandMiddle3
										{
											OFFSET -2.949974 0.000015 -0.002054
											CHANNELS 6 Xposition Yposition Zposition Xrotation Yrotation Zrotation
											JOINT mixamorig:RightHandMiddle4
											{
												OFFSET -2.946640 0.000000 -0.000156
												CHANNELS 6 Xposition Yposition Zposition Xrotation Yrotation Zrotation
												End Site
												{
													OFFSET -294.664337 0.000000 -0.113670
												}
											}
										}
									}
								}
								JOINT mixamorig:RightHandRing1
								{
									OFFSET -9.103600 -0.043076 -1.865134
									CHANNELS 6 Xposition Yposition Zposition Xrotation Yrotation Zrotation
									JOINT mixamorig:RightHandRing2
									{
										OFFSET -3.379288 0.000000 -0.001055
										CHANNELS 6 Xposition Yposition Zposition Xrotation Yrotation Zrotation
										JOINT mixamorig:RightHandRing3
										{
											OFFSET -2.889687 -0.000015 0.000379
											CHANNELS 6 Xposition Yposition Zposition Xrotation Yrotation Zrotation
											JOINT mixamorig:RightHandRing4
											{
												OFFSET -2.638809 -0.000015 0.000941
												CHANNELS 6 Xposition Yposition Zposition Xrotation Yrotation Zrotation
												End Site
												{
													OFFSET -263.880371 0.000000 0.516020
												}
											}
										}
									}
								}
								JOINT mixamorig:RightHandPinky1
								{
									OFFSET -8.076683 -0.486710 -3.806280
									CHANNELS 6 Xposition Yposition Zposition Xrotation Yrotation Zrotation
									JOINT mixamorig:RightHandPinky2
									{
										OFFSET -3.600014 -0.000015 -0.003747
										CHANNELS 6 Xposition Yposition Zposition Xrotation Yrotation Zrotation
										JOINT mixamorig:RightHandPinky3
										{
											OFFSET -2.099983 0.000000 -0.005739
											CHANNELS 6 Xposition Yposition Zposition Xrotation Yrotation Zrotation
											JOINT mixamorig:RightHandPinky4
											{
												OFFSET -2.115768 -0.000031 -0.003680
												CHANNELS 6 Xposition Yposition Zposition Xrotation Yrotation Zrotation
												End Site
												{
													OFFSET -211.577087 0.000000 -0.350686
												}
											}
										}
									}
								}
							}
						}
					}
				}
				JOINT mixamorig:LeftShoulder
				{
					OFFSET 4.570447 11.014725 -2.160855
					CHANNELS 6 Xposition Yposition Zposition Xrotation Yrotation Zrotation
					JOINT mixamorig:LeftArm
					{
						OFFSET 10.592371 -0.524597 -2.232119
						CHANNELS 6 Xposition Yposition Zposition Xrotation Yrotation Zrotation
						JOINT mixamorig:LeftForeArm
						{
							OFFSET 27.841532 -0.000031 0.000026
							CHANNELS 6 Xposition Yposition Zposition Xrotation Yrotation Zrotation
							JOINT mixamorig:LeftHand
							{
								OFFSET 28.328846 -0.000061 0.000022
								CHANNELS 6 Xposition Yposition Zposition Xrotation Yrotation Zrotation
								JOINT mixamorig:LeftHandThumb1
								{
									OFFSET 2.466141 -1.576172 2.681732
									CHANNELS 6 Xposition Yposition Zposition Xrotation Yrotation Zrotation
									JOINT mixamorig:LeftHandThumb2
									{
										OFFSET 3.217812 -1.872070 1.916482
										CHANNELS 6 Xposition Yposition Zposition Xrotation Yrotation Zrotation
										JOINT mixamorig:LeftHandThumb3
										{
											OFFSET 2.656029 -1.528778 1.514513
											CHANNELS 6 Xposition Yposition Zposition Xrotation Yrotation Zrotation
											JOINT mixamorig:LeftHandThumb4
											{
												OFFSET 2.020889 -1.154053 1.115139
												CHANNELS 6 Xposition Yposition Zposition Xrotation Yrotation Zrotation
												End Site
												{
													OFFSET 190.885437 -115.081749 130.048782
												}
											}
										}
									}
								}
								JOINT mixamorig:LeftHandIndex1
								{
									OFFSET 9.109314 -0.518021 2.259871
									CHANNELS 6 Xposition Yposition Zposition Xrotation Yrotation Zrotation
									JOINT mixamorig:LeftHandIndex2
									{
										OFFSET 3.699989 0.000000 -0.000322
										CHANNELS 6 Xposition Yposition Zposition Xrotation Yrotation Zrotation
										JOINT mixamorig:LeftHandIndex3
										{
											OFFSET 2.850006 0.000000 0.000352
											CHANNELS 6 Xposition Yposition Zposition Xrotation Yrotation Zrotation
											JOINT mixamorig:LeftHandIndex4
											{
												OFFSET 2.774864 -0.000031 -0.000027
												CHANNELS 6 Xposition Yposition Zposition Xrotation Yrotation Zrotation
												End Site
												{
													OFFSET 277.486267 0.000000 -0.009857
												}
											}
										}
									}
								}
								JOINT mixamorig:LeftHandMiddle1
								{
									OFFSET 9.533394 0.000061 0.000044
									CHANNELS 6 Xposition Yposition Zposition Xrotation Yrotation Zrotation
									JOINT mixamorig:LeftHandMiddle2
									{
										OFFSET 3.699989 -0.000015 -0.000231
										CHANNELS 6 Xposition Yposition Zposition Xrotation Yrotation Zrotation
										JOINT mixamorig:LeftHandMiddle3
										{
											OFFSET 2.949997 -0.000015 -0.000059
											CHANNELS 6 Xposition Yposition Zposition Xrotation Yrotation Zrotation
											JOINT mixamorig:LeftHandMiddle4
											{
												OFFSET 2.952896 0.000031 0.000063
												CHANNELS 6 Xposition Yposition Zposition Xrotation Yrotation Zrotation
												End Site
												{
													OFFSET 295.289337 0.000000 0.022810
												}
											}
										}
									}
								}
								JOINT mixamorig:LeftHandRing1
								{
									OFFSET 9.104523 -0.042999 -1.865074
									CHANNELS 6 Xposition Yposition Zposition Xrotation Yrotation Zrotation
									JOINT mixamorig:LeftHandRing2
									{
										OFFSET 3.150009 -0.000031 0.000043
										CHANNELS 6 Xposition Yposition Zposition Xrotation Yrotation Zrotation
										JOINT mixamorig:LeftHandRing3
										{
											OFFSET 2.949982 -0.000015 0.000040
											CHANNELS 6 Xposition Yposition Zposition Xrotation Yrotation Zrotation
											JOINT mixamorig:LeftHandRing4
											{
												OFFSET 2.644348 0.000000 0.000057
												CHANNELS 6 Xposition Yposition Zposition Xrotation Yrotation Zrotation
												End Site
												{
													OFFSET 264.434631 0.000000 0.012105
												}
											}
										}
									}
								}
								JOINT mixamorig:LeftHandPinky1
								{
									OFFSET 8.077789 -0.486847 -3.806259
									CHANNELS 6 Xposition Yposition Zposition Xrotation Yrotation Zrotation
									JOINT mixamorig:LeftHandPinky2
									{
										OFFSET 3.599953 0.000031 0.014727
										CHANNELS 6 Xposition Yposition Zposition Xrotation Yrotation Zrotation
										JOINT mixamorig:LeftHandPinky3
										{
											OFFSET 2.100021 0.000015 0.007705
											CHANNELS 6 Xposition Yposition Zposition Xrotation Yrotation Zrotation
											JOINT mixamorig:LeftHandPinky4
											{
												OFFSET 2.125504 0.000031 0.007517
												CHANNELS 6 Xposition Yposition Zposition Xrotation Yrotation Zrotation
												End Site
												{
													OFFSET 212.550781 0.000000 0.625752
												}
											}
										}
									}
								}
							}
						}
					}
				}
			}
		}
	}
	JOINT mixamorig:RightUpLeg
	{
		OFFSET -8.207787 -6.751648 -1.599560
		CHANNELS 6 Xposition Yposition Zposition Xrotation Yrotation Zrotation
		JOINT mixamorig:RightLeg
		{
			OFFSET -0.000002 -44.370117 0.345942
			CHANNELS 6 Xposition Yposition Zposition Xrotation Yrotation Zrotation
			JOINT mixamorig:RightFoot
			{
				OFFSET 0.000003 -44.423679 -3.043532
				CHANNELS 6 Xposition Yposition Zposition Xrotation Yrotation Zrotation
				JOINT mixamorig:RightToeBase
				{
					OFFSET -0.000002 -8.728671 10.710558
					CHANNELS 6 Xposition Yposition Zposition Xrotation Yrotation Zrotation
					JOINT mixamorig:RightToe_End
					{
						OFFSET -0.000001 -0.000679 9.278119
						CHANNELS 6 Xposition Yposition Zposition Xrotation Yrotation Zrotation
						End Site
						{
							OFFSET 0.000000 -0.067690 927.812134
						}
					}
				}
			}
		}
	}
	JOINT mixamorig:LeftUpLeg
	{
		OFFSET 8.207793 -6.751686 -1.599556
		CHANNELS 6 Xposition Yposition Zposition Xrotation Yrotation Zrotation
		JOINT mixamorig:LeftLeg
		{
			OFFSET -0.000004 -44.370014 0.346954
			CHANNELS 6 Xposition Yposition Zposition Xrotation Yrotation Zrotation
			JOINT mixamorig:LeftFoot
			{
				OFFSET -0.000001 -44.423672 -3.044401
				CHANNELS 6 Xposition Yposition Zposition Xrotation Yrotation Zrotation
				JOINT mixamorig:LeftToeBase
				{
					OFFSET -0.000002 -8.728669 10.710558
					CHANNELS 6 Xposition Yposition Zposition Xrotation Yrotation Zrotation
					JOINT mixamorig:LeftToe_End
					{
						OFFSET -0.000003 -0.000679 9.278133
						CHANNELS 6 Xposition Yposition Zposition Xrotation Yrotation Zrotation
						End Site
						{
							OFFSET 0.000000 -0.068021 927.813477
						}
					}
				}
			}
		}
	}
}
MOTION
Frames: 3
Frame Time: 0.033333
0.000006 104.270477 1.554256 0.000010 0.000003 -0.000113 -0.000005 10.181587 0.131522 0.000001 -0.000003 0.000084 -0.000000 9.893967 -1.470711 0.000001 0.000000 -0.000000 -0.000000 9.220802 -1.370642 0.000000 -0.000000 -0.000000 0.000001 16.740433 -2.049030 0.000000 -0.000000 -0.000000 0.000000 9.617859 1.685014 0.000000 0.000000 0.000000 0.000002 22.037384 7.501101 0.000000 -0.000000 0.000000 -4.569968 11.014880 -2.160881 0.000008 0.000001 -0.000038 -10.592876 -0.524769 -2.231902 71.821509 29.831087 -21.836065 -27.841530 0.000018 0.000531 -57.435252 117.239678 83.865202 -28.328836 0.000008 0.000027 -0.000322 -0.000044 0.000007 -2.464458 -1.573683 2.682258 -54.602626 -176.750392 -32.424646 -3.215269 -1.872590 1.924648 153.852948 31.398226 3.104736 -2.654947 -1.527888 1.513081 146.657207 26.979836 -37.259228 -2.018826 -1.151999 1.108066 0.000001 0.000002 0.000002 -9.108385 -0.517562 2.260127 97.759200 18.130285 -20.768718 -3.700093 0.000303 0.001510 93.984421 16.790391 -17.955319 -2.850084 0.000361 -0.000258 93.252327 13.386301 -14.159848 -2.772151 -0.000000 -0.000021 -0.000002 0.000000 0.000001 -9.532599 0.000256 0.000256 94.237807 18.308708 -19.845002 -3.700074 0.000324 0.003994 95.713941 14.384879 -15.770714 -2.950056 0.000330 -0.001778 98.777178 12.457754 -14.499990 -2.946617 0.000001 -0.000156 -0.000002 -0.000000 0.000000 -9.103710 -0.042777 -1.864882 92.394339 18.828929 -19.570222 -3.379340 0.000311 -0.000803 94.852428 10.088142 -10.994585 -2.889746 0.000352 0.000655 101.472822 6.762872 -8.324162 -2.638805 -0.000004 0.000938 0.000002 -0.000001 0.000001 -8.076753 -0.486406 -3.806034 86.163799 18.823300 -17.479649 -3.600017 0.000304 -0.003512 90.857232 8.606586 -8.374809 -2.100005 0.000329 -0.005470 94.724356 4.191116 -4.318198 -2.115761 -0.000042 -0.003685 -0.000002 0.000000 -0.000003 4.570446 11.014691 -2.160851 -0.000018 0.000010 -0.000021 10.592514 -0.524553 -2.232380 58.529189 -66.532333 40.368505 27.841717 -0.000072 -0.000084 249.022850 -73.157972 265.632095 28.328829 -0.000028 0.000023 0.000020 -0.000087 0.000001 2.466156 -1.576171 2.681846 139.554084 173.939141 -169.342943 3.217827 -1.872012 1.916510 -81.917129 41.298913 33.524525 2.655876 -1.528837 1.514625 -189.063680 47.728952 137.852028 2.020883 -1.154071 1.115151 0.000001 0.000002 0.000003 9.109451 -0.517847 2.259835 -226.335571 -26.453254 57.525902 3.700080 0.000057 -0.000379 -274.879761 -41.157265 38.063111 2.850052 0.000062 0.000286 54.270877 -31.340210 16.361885 2.774875 -0.000030 -0.000025 0.000001 -0.000001 -0.000001 9.533487 0.000287 -0.000052 -239.946185 -14.629592 -334.918818 3.700070 0.000094 -0.000321 73.774929 -26.620705 20.133414 2.950027 0.000015 -0.000122 -323.106415 -22.899068 7.731198 2.952879 -0.000032 0.000063 -0.000002 0.000003 -0.000002 9.104623 -0.042766 -1.865175 -238.802756 -15.930950 27.894170 3.150018 0.000124 -0.000081 63.872446 -11.183031 6.985337 2.950006 0.000023 -0.000001 -335.938702 -11.857155 2.536069 2.644323 0.000045 0.000059 -0.000000 0.000000 -0.000002 8.077849 -0.486650 -3.806404 -253.718469 -14.443760 19.950839 3.599968 0.000111 0.014576 57.837461 -5.872670 3.507388 2.100014 0.000017 0.007641 -342.623927 -1.228842 0.254160 2.125498 -0.000015 0.007522 -0.000001 0.000001 -0.000001 -8.207786 -6.751667 -1.599560 -0.077001 -0.000003 0.000080 -0.000002 -44.370110 0.345938 0.153719 -0.000000 -0.000000 0.000000 -44.423679 -3.043532 -0.076700 0.000000 -0.000002 -0.000006 -8.728667 10.710559 -0.000009 -0.000000 -0.000000 -0.000001 -0.000679 9.278123 0.000000 -0.000000 -0.000000 8.207792 -6.751710 -1.599556 -0.074518 -0.000003 0.000081 -0.000002 -44.370014 0.346960 0.148822 0.000002 0.000000 -0.000001 -44.423664 -3.044403 -0.074314 0.000000 -0.000002 -0.000004 -8.728671 10.710558 0.000007 -0.000000 -0.000000 0.000000 -0.000680 9.278137 -0.000000 0.000000 -0.000001 
0.000006 104.270477 1.554256 0.000010 0.000003 -0.000113 -0.000005 10.181587 0.131522 0.000001 -0.000003 0.000084 -0.000000 9.893967 -1.470711 0.000001 0.000000 -0.000000 -0.000000 9.220802 -1.370642 0.000000 -0.000000 -0.000000 0.000001 16.740433 -2.049030 0.000000 -0.000000 -0.000000 0.000000 9.617859 1.685014 0.000000 0.000000 0.000000 0.000002 22.037384 7.501101 0.000000 -0.000000 0.000000 -4.569968 11.014880 -2.160881 0.000008 0.000001 -0.000038 -10.592867 -0.524778 -2.231888 71.847593 34.601704 -25.434113 -27.841541 0.000007 0.000558 -57.492912 115.883380 82.427584 -28.328821 0.000010 0.000024 -0.000320 -0.000045 0.000007 -2.464465 -1.573684 2.682289 -54.381567 -175.309031 -30.943390 -3.215283 -1.872585 1.924672 153.881225 31.418802 3.213578 -2.654946 -1.527870 1.513078 146.655595 26.968727 -37.382517 -2.018838 -1.152015 1.108063 -0.000001 -0.000006 0.000004 -9.108386 -0.517558 2.260114 97.555995 17.618511 -20.116000 -3.700074 0.000311 0.001528 93.916419 16.228436 -17.334528 -2.850094 0.000353 -0.000282 93.136460 12.830202 -13.544968 -2.772170 0.000001 -0.000022 -0.000000 -0.000000 -0.000000 -9.532595 0.000261 0.000246 94.319189 17.688609 -19.205860 -3.700076 0.000316 0.003990 96.003821 13.987714 -15.410961 -2.950080 0.000330 -0.001783 98.943350 12.202126 -14.244455 -2.946630 0.000002 -0.000154 -0.000000 0.000000 -0.000001 -9.103708 -0.042757 -1.864878 92.388028 18.104567 -18.814873 -3.379343 0.000317 -0.000801 95.086718 9.846926 -10.776223 -2.889738 0.000355 0.000649 101.601625 6.659011 -8.216017 -2.638815 -0.000017 0.000942 0.000000 0.000001 -0.000001 -8.076759 -0.486380 -3.806015 86.084323 18.201254 -16.873670 -3.600028 0.000291 -0.003511 90.749343 8.141019 -7.889647 -2.100021 0.000335 -0.005489 94.678341 3.847893 -3.943548 -2.115782 -0.000041 -0.003680 -0.000001 -0.000001 -0.000004 4.570446 11.014691 -2.160851 -0.000018 0.000010 -0.000021 10.592516 -0.524545 -2.232378 57.874290 -68.116193 40.985124 27.841722 -0.000058 -0.000089 248.249455 -73.699100 264.242534 28.328840 -0.000013 0.000030 0.000022 -0.000091 -0.000000 2.466149 -1.576187 2.681849 140.412215 168.801145 -169.984612 3.217797 -1.872020 1.916526 -85.459976 47.811533 37.679995 2.655836 -1.528815 1.514626 -196.439601 46.583181 147.761649 2.020877 -1.154084 1.115153 0.000005 0.000006 -0.000001 9.109454 -0.517833 2.259845 -216.239923 -19.087220 54.348546 3.700069 0.000090 -0.000418 -277.226395 -34.593149 30.707123 2.850042 0.000066 0.000270 51.584242 -24.722823 12.090313 2.774899 -0.000029 -0.000039 -0.000003 -0.000002 -0.000001 9.533474 0.000316 -0.000048 -230.264091 -10.002774 -338.884016 3.700060 0.000123 -0.000374 77.047560 -21.491159 17.180542 2.950047 0.000012 -0.000159 -317.701222 -18.408651 7.175430 2.952865 -0.000033 0.000087 -0.000000 0.000002 -0.000003 9.104619 -0.042763 -1.865162 -232.018220 -13.263186 26.808718 3.150034 0.000157 -0.000103 70.598311 -11.029267 7.822248 2.950009 0.000008 -0.000024 -327.620788 -11.510978 3.352907 2.644323 0.000033 0.000064 0.000002 -0.000000 -0.000002 8.077862 -0.486631 -3.806375 -248.266776 -13.498966 20.644496 3.599967 0.000144 0.014569 65.324394 -6.846894 4.697654 2.100003 -0.000011 0.007596 -333.274791 -2.889240 0.793499 2.125510 -0.000011 0.007516 -0.000001 -0.000000 0.000000 -8.207786 -6.751667 -1.599560 -0.077001 -0.000003 0.000080 -0.000002 -44.370110 0.345938 0.153719 -0.000000 -0.000000 0.000000 -44.423679 -3.043532 -0.076700 0.000000 -0.000002 -0.000006 -8.728667 10.710559 -0.000009 -0.000000 -0.000000 -0.000001 -0.000679 9.278123 0.000000 -0.000000 -0.000000 8.207792 -6.751710 -1.599556 -0.074518 -0.000003 0.000081 -0.000002 -44.370014 0.346960 0.148822 0.000002 0.000000 -0.000001 -44.423664 -3.044403 -0.074314 0.000000 -0.000002 -0.000004 -8.728671 10.710558 0.000007 -0.000000 -0.000000 0.000000 -0.000680 9.278137 -0.000000 0.000000 -0.000001 
0.000006 104.270477 1.554256 0.000010 0.000003 -0.000113 -0.000005 10.181587 0.131522 0.000001 -0.000003 0.000084 -0.000000 9.893967 -1.470711 0.000001 0.000000 -0.000000 -0.000000 9.220802 -1.370642 0.000000 -0.000000 -0.000000 0.000001 16.740433 -2.049030 0.000000 -0.000000 -0.000000 0.000000 9.617859 1.685014 0.000000 0.000000 0.000000 0.000002 22.037384 7.501101 0.000000 -0.000000 0.000000 -4.569968 11.014880 -2.160881 0.000008 0.000001 -0.000038 -10.592867 -0.524776 -2.231886 71.877994 34.537961 -25.399624 -27.841537 0.000040 0.000543 -57.698508 115.298128 82.025921 -28.328823 0.000022 0.000022 -0.000324 -0.000043 0.000008 -2.464461 -1.573687 2.682281 -54.199252 -174.672854 -30.046555 -3.215281 -1.872565 1.924662 153.630379 31.596011 4.552287 -2.654959 -1.527881 1.513081 146.930073 26.992196 -36.553625 -2.018827 -1.152014 1.108050 -0.000003 -0.000002 0.000005 -9.108390 -0.517556 2.260125 97.261238 17.280751 -19.632870 -3.700073 0.000304 0.001504 93.928331 15.939035 -17.029099 -2.850102 0.000358 -0.000270 93.458209 12.578779 -13.354001 -2.772179 -0.000001 -0.000016 -0.000000 -0.000000 0.000000 -9.532604 0.000267 0.000238 94.608276 17.136620 -18.704874 -3.700082 0.000318 0.003985 96.140083 13.663713 -15.088291 -2.950084 0.000344 -0.001795 99.109194 12.022303 -14.075765 -2.946610 0.000014 -0.000156 -0.000001 0.000000 0.000000 -9.103710 -0.042763 -1.864881 92.668742 17.512243 -18.286810 -3.379324 0.000319 -0.000800 95.034070 9.573407 -10.468026 -2.889747 0.000353 0.000667 101.762893 6.511554 -8.058460 -2.638818 -0.000014 0.000941 -0.000000 0.000000 -0.000002 -8.076760 -0.486407 -3.806028 86.234874 17.633494 -16.385057 -3.600025 0.000291 -0.003504 90.653358 7.788471 -7.521594 -2.100003 0.000336 -0.005477 95.016544 3.586840 -3.682960 -2.115781 -0.000071 -0.003676 -0.000001 -0.000000 -0.000004 4.570446 11.014691 -2.160851 -0.000018 0.000010 -0.000021 10.592516 -0.524549 -2.232375 58.025606 -68.129457 41.111756 27.841724 -0.000061 -0.000089 248.292949 -73.621585 264.369521 28.328829 -0.000028 0.000021 0.000023 -0.000090 0.000001 2.466148 -1.576179 2.681841 143.867239 170.566161 -171.006873 3.217800 -1.872030 1.916513 -81.015954 51.115066 35.595596 2.655843 -1.528845 1.514591 -198.401286 51.086410 152.723686 2.020875 -1.154080 1.115153 0.000002 0.000005 0.000006 9.109428 -0.517805 2.259808 -230.943094 -18.399355 37.528703 3.700082 0.000078 -0.000397 -276.146952 -33.266942 30.055564 2.850059 0.000070 0.000263 55.493508 -27.872409 14.873550 2.774894 -0.000021 -0.000048 0.000001 0.000001 0.000000 9.533476 0.000299 -0.000074 -240.297311 -9.358574 -343.971168 3.700063 0.000120 -0.000345 75.430806 -20.241448 15.716298 2.950031 0.000031 -0.000146 -317.081424 -19.208403 7.612353 2.952861 -0.000031 0.000058 -0.000000 0.000002 -0.000001 9.104632 -0.042777 -1.865187 -238.375296 -16.320850 28.798352 3.150031 0.000126 -0.000113 66.452044 -10.404598 6.827228 2.949998 0.000009 -0.000031 -328.876149 -11.810267 3.300392 2.644328 0.000044 0.000050 0.000000 -0.000000 0.000002 8.077868 -0.486640 -3.806385 -250.714661 -15.183804 22.090029 3.599979 0.000139 0.014582 61.077539 -8.046088 5.039649 2.100001 0.000019 0.007644 -340.187954 -4.024866 0.788531 2.125497 -0.000016 0.007520 -0.000002 -0.000000 0.000003 -8.207786 -6.751667 -1.599560 -0.077001 -0.000003 0.000080 -0.000002 -44.370110 0.345938 0.153719 -0.000000 -0.000000 0.000000 -44.423679 -3.043532 -0.076700 0.000000 -0.000002 -0.000006 -8.728667 10.710559 -0.000009 -0.000000 -0.000000 -0.000001 -0.000679 9.278123 0.000000 -0.000000 -0.000000 8.207792 -6.751710 -1.599556 -0.074518 -0.000003 0.000081 -0.000002 -44.370014 0.346960 0.148822 0.000002 0.000000 -0.000001 -44.423664 -3.044403 -0.074314 0.000000 -0.000002 -0.000004 -8.728671 10.710558 0.000007 -0.000000 -0.000000 0.000000 -0.000680 9.278137 -0.000000 0.000000 -0.000001 
